<svg xmlns="http://www.w3.org/2000/svg" width="1200" height="400" viewBox="0 0 1200 400" role="img" aria-label="Idea Pitching App illustration" font-family="'Segoe UI', Roboto, 'Helvetica Neue', Arial, sans-serif" color="#22D3EE">
<defs>
<linearGradient id="bg" x1="0" y1="0" x2="1" y2="1"><stop offset="0" stop-color="#103425"/><stop offset="1" stop-color="#0A1210"/></linearGradient>
<linearGradient id="g" x1="0" y1="0" x2="1" y2="1"><stop offset="0" stop-color="#34D399"/><stop offset="1" stop-color="#22D3EE"/></linearGradient>
<radialGradient id="glow1"><stop offset="0" stop-color="#34D399" stop-opacity=".5"/><stop offset="1" stop-color="#34D399" stop-opacity="0"/></radialGradient>
<radialGradient id="glow2"><stop offset="0" stop-color="#22D3EE" stop-opacity=".3"/><stop offset="1" stop-color="#22D3EE" stop-opacity="0"/></radialGradient>
<pattern id="dots" width="20" height="20" patternUnits="userSpaceOnUse"><circle cx="2" cy="2" r="1" fill="#fff" fill-opacity=".08"/></pattern>
<marker id="ar" viewBox="0 0 10 10" refX="8" refY="5" markerWidth="7" markerHeight="7" orient="auto-start-reverse"><path d="M0 0L10 5L0 10z" fill="#22D3EE"/></marker>
</defs>
<rect width="1200" height="400" fill="url(#bg)"/>
<rect width="1200" height="400" fill="url(#dots)"/>
<circle cx="1120" cy="-20" r="300" fill="url(#glow1)"/>
<circle cx="120" cy="430" r="260" fill="url(#glow2)"/>
<rect x="48" y="56" width="92" height="30" rx="15" fill="#fff" fill-opacity=".09" stroke="#fff" stroke-opacity=".18"/><text x="94.0" y="76" font-size="12.5" font-weight="700" fill="#D5DCFF" text-anchor="middle" letter-spacing="1">ANDROID</text><text x="48" y="230" font-size="28" font-weight="800" fill="url(#g)" letter-spacing="-2">Idea Pitching App</text><text x="48" y="266" font-size="21" fill="#AEB9D6"></text>
<rect x="470" y="75" width="130" height="250" rx="22" fill="#0A0F20" fill-opacity=".95" stroke="#94A3D6" stroke-opacity=".4" stroke-width="2"/><rect x="515" y="84" width="40" height="6" rx="3" fill="#fff" fill-opacity=".2"/><rect x="484" y="105" width="102" height="34" rx="8" fill="url(#g)" fill-opacity=".85"/><rect x="484" y="151" width="102" height="36" rx="8" fill="#fff" fill-opacity=".06" stroke="#94A3D6" stroke-opacity=".15"/><circle cx="502" cy="169" r="9" fill="url(#g)" fill-opacity=".7"/><rect x="518" y="163" width="56" height="6" rx="3" fill="#fff" fill-opacity=".35"/><rect x="484" y="195" width="102" height="36" rx="8" fill="#fff" fill-opacity=".06" stroke="#94A3D6" stroke-opacity=".15"/><circle cx="502" cy="213" r="9" fill="url(#g)" fill-opacity=".7"/><rect x="518" y="207" width="48" height="6" rx="3" fill="#fff" fill-opacity=".35"/><rect x="484" y="239" width="102" height="36" rx="8" fill="#fff" fill-opacity=".06" stroke="#94A3D6" stroke-opacity=".15"/><circle cx="502" cy="257" r="9" fill="url(#g)" fill-opacity=".7"/><rect x="518" y="251" width="40" height="6" rx="3" fill="#fff" fill-opacity=".35"/><rect x="484" y="287" width="102" height="22" rx="11" fill="url(#g)"/><rect x="630" y="75" width="130" height="250" rx="22" fill="#0A0F20" fill-opacity=".95" stroke="#94A3D6" stroke-opacity=".4" stroke-width="2"/><rect x="675" y="84" width="40" height="6" rx="3" fill="#fff" fill-opacity=".2"/><rect x="644" y="105" width="102" height="34" rx="8" fill="url(#g)" fill-opacity=".85"/><rect x="644" y="151" width="102" height="36" rx="8" fill="#fff" fill-opacity=".06" stroke="#94A3D6" stroke-opacity=".15"/><circle cx="662" cy="169" r="9" fill="url(#g)" fill-opacity=".7"/><rect x="678" y="163" width="56" height="6" rx="3" fill="#fff" fill-opacity=".35"/><rect x="644" y="195" width="102" height="36" rx="8" fill="#fff" fill-opacity=".06" stroke="#94A3D6" stroke-opacity=".15"/><circle cx="662" cy="213" r="9" fill="url(#g)" fill-opacity=".7"/><rect x="678" y="207" width="48" height="6" rx="3" fill="#fff" fill-opacity=".35"/><rect x="644" y="239" width="102" height="36" rx="8" fill="#fff" fill-opacity=".06" stroke="#94A3D6" stroke-opacity=".15"/><circle cx="662" cy="257" r="9" fill="url(#g)" fill-opacity=".7"/><rect x="678" y="251" width="40" height="6" rx="3" fill="#fff" fill-opacity=".35"/><rect x="644" y="287" width="102" height="22" rx="11" fill="url(#g)"/><line x1="780" y1="200" x2="940" y2="200" stroke="currentColor" stroke-width="2.5" stroke-dasharray="6 6" marker-end="url(#ar)" marker-start="url(#ar)"/><rect x="950" y="150" width="170" height="100" rx="12" fill="url(#g)" fill-opacity="1" stroke="#94A3D6" stroke-opacity=".25"/><text x="1035.0" y="207.7" font-size="22" font-weight="700" fill="#071022" text-anchor="middle">Firebase</text>
</svg>
